<svg xmlns="http://www.w3.org/2000/svg" width="24" height="24" viewBox="0 0 24 24">
  <circle stroke="currentColor" stroke-width="2" fill="none" stroke-linecap="round" stroke-linejoin="round" cx="12" cy="12" r="3"/>
  <path stroke="currentColor" stroke-width="2" fill="none" stroke-linecap="round" stroke-linejoin="round" d="M19.4 15a1.65 1.65 0 0 0 .33 1.82l.06.06a2 2 0 1 1-2.83 2.83l-.06-.06A1.65 1.65 0 0 0 15 19.4a1.65 1.65 0 0 0-1 .6 1.65 1.65 0 0 1-2 0 1.65 1.65 0 0 0-1-.6 1.65 1.65 0 0 0-1.82.33l-.06.06a2 2 0 1 1-2.83-2.83l.06-.06A1.65 1.65 0 0 0 4.6 15a1.65 1.65 0 0 0-.6-1 1.65 1.65 0 0 1 0-2 1.65 1.65 0 0 0 .6-1 1.65 1.65 0 0 0-.33-1.82l-.06-.06A2 2 0 1 1 6.94 5.3l.06.06A1.65 1.65 0 0 0 9 4.6a1.65 1.65 0 0 0 1-.6 1.65 1.65 0 0 1 2 0 1.65 1.65 0 0 0 1 .6 1.65 1.65 0 0 0 1.82-.33l.06-.06A2 2 0 1 1 19.7 6.94l-.06.06A1.65 1.65 0 0 0 19.4 9c.22.31.5.57.82.76a1.65 1.65 0 0 1 0 2c-.32.19-.6.45-.82.76z"/>
</svg>